<?xml version="1.0" encoding="UTF-8"?>
<svg width="536px" height="206px" viewBox="0 0 536 206" version="1.1" xmlns="http://www.w3.org/2000/svg" xmlns:xlink="http://www.w3.org/1999/xlink">
    <title>UBS_Logo</title>
    <g id="Page-1" stroke="none" stroke-width="1" fill="none" fill-rule="evenodd">
        <g id="UBS_Logo" transform="translate(-0.000004, -0.000004)" fill="#000000" fill-rule="nonzero">
            <path d="M485.53166,168.407694 C477.49019,167.813094 468.81406,165.791724 461.92929,162.908834 C460.37098,162.256314 459.26878,156.326164 458.4851,156.028274 L456.8737,148.088384 C456.66434,141.013794 456.39801,133.198364 456.28185,130.720764 L456.07066,126.216034 L458.9553,126.216034 L461.83993,126.216034 L462.57343,131.757414 C465.31336,152.456924 476.24608,162.875244 495.22773,162.875244 C507.8339,162.875244 515.64908,158.146844 519.58498,148.138434 C520.81297,145.015834 521.00166,143.406184 521.02673,135.839134 C521.05525,127.226994 521.03357,127.087614 519.02525,122.978984 C515.50065,115.768334 511.93801,113.377514 494.18434,106.308724 C488.9182,104.211964 482.66368,101.515804 480.28543,100.317264 C464.78125,92.5037842 457.10013,81.4188542 457.1313,66.9026142 C457.17117,48.3317242 467.50997,34.9276842 485.53613,30.0763642 C491.81111,28.3875942 507.09954,28.5718842 513.64282,30.4151742 C519.77818,32.1435542 527.89002,35.3568042 528.75042,36.3995942 C529.11787,36.8449342 529.5381,42.1011542 529.72681,48.6122442 C529.90903,54.8991842 530.16015,61.5109742 530.28486,63.3050942 L530.51162,66.5671442 L527.58957,66.5671442 L524.66752,66.5671442 L523.38464,60.0244442 C520.39734,44.7891742 513.38378,36.7588942 501.30668,34.7459442 C491.53073,33.1165442 479.68363,36.8896642 475.01859,43.1183042 C471.47236,47.8531242 470.40176,51.5617042 470.40176,59.1110342 C470.40176,65.1130842 470.54851,65.9264542 472.23573,69.2758542 C474.42761,73.6270842 477.54252,76.4728742 483.37407,79.4518742 C487.45929,81.5387642 501.25444,87.0714542 502.37268,87.0714542 C503.45895,87.0714542 515.85149,93.2495742 519.05382,95.3875942 C527.96318,101.335874 532.9249,109.317554 534.69287,120.545364 C535.557,126.033144 535.59642,127.862914 534.9601,132.947894 C533.51832,144.469284 530.16028,151.607304 523.07241,158.216924 C513.98682,166.689484 502.92066,169.693494 485.53166,168.407694 Z M266.31968,167.568344 C246.65541,163.801504 237.35734,153.450764 234.76903,132.445754 C234.36934,129.202054 234.12025,109.700684 234.12025,81.6510042 L234.12025,36.1213642 L226.7075,36.1213642 L219.29475,36.1213642 L219.29475,33.3253242 L219.29475,30.5292842 L243.69506,30.5292842 L268.09537,30.5292842 L268.09537,33.3067542 L268.09537,36.0842342 L260.21932,36.2581342 L252.34327,36.4320342 L252.16258,76.8193042 C251.92748,129.370944 252.5212,137.834434 257.09906,147.187764 C261.61534,156.415294 270.34092,161.011214 283.34356,161.011214 C298.09057,161.011214 306.31098,155.497504 310.74531,142.631954 C313.58183,134.402194 313.79983,130.054334 313.8037,81.6347042 L313.80735,36.1213642 L306.39459,36.1213642 L298.98184,36.1213642 L298.98184,33.3253242 L298.98184,30.5292842 L316.89599,30.5292842 L334.81015,30.5292842 L334.81015,33.3253242 L334.81015,36.1213642 L328.03947,36.1213642 L321.2688,36.1213642 L321.07581,85.6734342 C320.88485,134.703334 320.86832,135.277874 319.50759,140.196234 C315.48754,154.726784 307.53992,162.867464 293.73114,166.598874 C287.2809,168.341854 272.99523,168.847104 266.31968,167.568344 Z M342.95805,163.993224 L343.14949,161.321884 L350.56225,161.223264 L357.975,161.124654 L358.13239,98.6421542 L358.28977,36.1596642 L350.71963,35.9851742 L343.14949,35.8106942 L342.95954,33.1699842 L342.76959,30.5292842 L373.10996,30.5292842 C392.29728,30.5292842 405.08335,30.7832442 407.89276,31.2201542 C418.62019,32.8884642 425.94611,37.6255542 429.88612,45.4415042 C433.28339,52.1808042 434.32942,60.6223842 432.74422,68.5067842 C431.04379,76.9643542 427.53662,82.1777242 420.50603,86.6986742 C415.75416,89.7543242 412.69272,91.0194642 406.77563,92.3727542 C404.05762,92.9943942 401.60434,93.6986942 401.3239,93.9378742 C401.04346,94.1770642 402.71133,94.5655742 405.03027,94.8012442 C428.8924,97.2262742 439.34418,107.741294 439.34418,129.322744 C439.34418,141.204634 436.53935,148.798034 429.58513,155.743114 C425.32212,160.000494 420.14793,162.827704 412.85529,164.884344 C408.19414,166.198864 406.77832,166.258324 375.38885,166.457524 L342.76662,166.664554 L342.95805,163.993224 Z M399.24347,160.084374 C409.78796,157.321814 416.84143,150.012544 419.18426,139.420414 C420.65783,132.758234 420.15467,120.545574 418.19226,115.342534 C415.80609,109.016004 411.78246,103.951054 406.87817,101.100364 C401.97555,98.2506442 398.42215,97.6342742 386.89617,97.6342742 L376.19802,97.6342742 L376.19802,129.322744 L376.19802,161.011214 L385.9519,161.011214 C392.60491,161.011214 396.83047,160.716554 399.24347,160.084374 Z M399.20877,90.5693842 C409.42394,87.2508742 415.38152,77.0495842 415.27842,63.0530242 C415.17088,48.4555042 407.79269,37.9511842 396.48288,36.2938742 C394.66936,36.0281242 389.36338,35.8957242 384.6918,35.9996542 L376.19802,36.1886142 L376.19802,63.7011742 C376.19802,78.8330842 376.4065,91.4311342 376.66132,91.6968542 C377.46638,92.5363642 396.00795,91.6092042 399.20877,90.5693842 Z" id="path2195"></path>
            <path d="M90.34296,205.277224 C88.39784,204.712314 88.33534,204.589844 88.33534,201.343904 C88.33534,198.058674 88.29638,197.986064 86.32772,197.602184 C82.65471,196.885974 76.32644,193.978634 73.36988,191.649104 C62.4808,183.069334 58.74888,169.650894 63.65217,156.708234 C66.78724,148.432914 75.43713,141.034304 84.79238,138.626124 C89.31221,137.462654 89.0977,136.161134 84.3201,135.760664 L80.61372,135.449994 L80.61372,132.343284 L80.61372,129.236574 L84.47453,129.051584 L88.33534,128.866604 L88.33534,113.052014 C88.33534,104.353994 88.20587,97.2374342 88.04762,97.2374342 C87.88938,97.2374342 83.23058,100.942184 77.69473,105.470224 C72.15888,109.998254 66.86778,114.302454 65.93672,115.035114 C65.00566,115.767784 64.24802,116.606594 64.25308,116.899144 C64.25813,117.191694 65.20444,118.549484 66.35599,119.916434 C68.38813,122.328704 68.42059,122.451534 67.45949,124.092764 C66.91486,125.022784 65.7035,126.052224 64.76756,126.380414 C63.20791,126.927284 62.86101,126.734254 60.61199,124.068104 C58.84381,121.971974 57.9679,121.346284 57.47736,121.828904 C56.98338,122.314914 57.33886,123.664284 58.77295,126.746774 C60.4867,130.430404 60.78669,131.840174 61.03059,137.356404 C61.2622,142.594434 61.08439,144.469244 60.02377,147.972084 C57.10821,157.601214 50.1277,164.621554 40.55202,167.554944 C37.07271,168.620794 35.25716,168.796254 30.35949,168.539994 C23.54339,168.183364 19.61116,166.858374 14.06036,163.047894 C12.11063,161.709454 10.30377,160.625734 10.04512,160.639624 C9.78646,160.653504 8.6297,161.477804 7.47453,162.471394 C5.4872,164.180734 5.28008,164.228944 3.62418,163.367634 C1.92279,162.482674 0,159.637374 0,158.004524 C0,157.560374 1.02707,156.329614 2.28241,155.269504 L4.56485,153.342004 L2.91854,149.523724 C-4.31545,132.745994 3.05252,114.423704 19.50385,108.280204 C22.48485,107.166994 24.36968,106.926164 29.65104,106.983644 C37.28543,107.066764 41.03004,108.238154 47.40348,112.537014 C52.44558,115.937884 53.69438,115.369624 50.30949,111.214654 C48.01764,108.401394 47.98151,108.280704 48.94715,106.664474 C49.49272,105.751334 50.68892,104.728844 51.60537,104.392274 C53.12895,103.832754 53.4902,104.031914 55.82356,106.717824 L58.37546,109.655294 L71.65664,98.8203642 C78.96129,92.8611542 84.93783,87.6938542 84.93783,87.3374842 C84.93783,86.9811242 79.10028,81.9521742 71.96551,76.1620542 L58.99319,65.6345542 L57.29443,67.2613642 C55.11219,69.3511742 55.14984,70.5757942 57.44887,72.2854842 C59.71143,73.9680442 59.72639,74.2665142 57.67132,76.7231042 L56.04059,78.6724542 L54.08997,76.7707742 C51.75773,74.4970542 51.50397,74.4660342 49.97028,76.2671242 C47.46668,79.2072342 47.44811,79.5995842 49.73831,81.1683042 C50.91671,81.9754742 51.88276,82.9476742 51.88508,83.3287642 C51.89003,84.1406242 49.5217,87.2970642 48.91025,87.2935342 C48.34866,87.2902942 36.8043,78.0089442 36.57251,77.3743342 C36.47218,77.0996442 39.32145,75.2605442 42.90424,73.2874542 C46.48702,71.3143642 49.41838,69.4840842 49.41838,69.2201542 C49.41838,68.9562342 48.61504,68.1649242 47.63318,67.4616842 L45.84798,66.1830742 L39.82716,69.6127342 C36.51572,71.4990542 33.7047,72.9401542 33.58046,72.8151842 C33.45621,72.6902242 34.29676,69.6016542 35.44833,65.9516942 L37.5421,59.3154242 L35.96301,58.0660442 C35.09452,57.3788842 34.11959,56.9052942 33.79651,57.0136242 C33.47342,57.1219442 32.25948,60.2618442 31.09885,63.9911742 C29.93823,67.7204942 28.87859,70.8824442 28.74411,71.0177142 C28.49482,71.2684542 16.06099,61.2279742 16.06099,60.7759342 C16.06099,60.1817342 18.81571,56.8501642 19.30703,56.8501642 C19.60555,56.8501642 20.82625,57.5992942 22.01969,58.5149042 L24.18959,60.1796442 L25.99372,58.2379342 C26.98599,57.1699942 27.79785,56.1009842 27.79785,55.8623642 C27.79785,55.6237442 26.76827,54.5332942 25.50989,53.4391542 L23.22193,51.4497942 L24.73773,49.5242942 C26.59567,47.1641642 26.84849,47.1388842 29.14597,49.0833842 C30.1554,49.9377342 31.19199,50.6367442 31.44952,50.6367442 C32.04597,50.6367442 35.21986,47.0755742 35.18268,46.4480542 C35.16732,46.1887942 32.81707,44.1592442 29.95991,41.9379442 C24.17836,37.4430942 23.72326,36.3771042 26.28066,33.3200342 C29.4903,29.4832842 26.44153,27.4905942 63.00843,57.3254642 C82.77556,73.4534342 87.63754,77.3544742 87.97122,77.3544742 C88.17148,77.3544742 88.33534,70.2245642 88.33534,61.5102342 L88.33534,45.6660042 L85.24669,45.6660042 L82.15804,45.6660042 L82.15804,48.7727142 L82.15804,51.8794242 L79.37826,51.8794242 L76.59848,51.8794242 L76.59848,48.7727142 L76.59848,45.6660042 L73.50983,45.6660042 L70.42118,45.6660042 L70.42118,48.7727142 L70.42118,51.8794242 L67.6414,51.8794242 L64.86162,51.8794242 L64.86162,43.5003742 L64.86162,35.1213142 L67.79583,36.2857142 C69.40965,36.9261342 72.51534,38.1802642 74.69736,39.0726842 C76.87938,39.9651042 78.89472,40.6952642 79.1759,40.6952642 C79.45707,40.6952642 79.68536,39.6467442 79.6832,38.3652242 L79.67928,36.0351942 L72.80171,33.3035542 L65.92414,30.5719042 L72.80563,27.8022342 L79.68713,25.0325642 L79.68713,22.6117642 C79.68713,21.2803242 79.55372,20.1909542 79.39068,20.1909542 C79.22763,20.1909542 76.23936,21.3400042 72.75009,22.7443942 C69.2608,24.1487842 66.05847,25.4369142 65.63378,25.6069142 C65.03883,25.8450642 64.86162,23.9756942 64.86162,17.4613942 L64.86162,9.00679424 L67.6414,9.00679424 L70.42118,9.00679424 L70.42118,12.1135042 L70.42118,15.2202142 L73.50983,15.2202142 L76.59848,15.2202142 L76.59848,12.1135042 L76.59848,9.00679424 L79.37826,9.00679424 L82.15804,9.00679424 L82.15804,12.1135042 L82.15804,15.2202142 L85.24669,15.2202142 L88.33534,15.2202142 L88.33534,8.09872424 L88.33534,0.977234244 L90.71571,0.332524244 C92.39424,-0.122105756 93.66919,-0.111245756 95.03982,0.369354244 L96.98355,1.05090424 L96.98355,39.2691642 C96.98355,71.5886642 97.11569,77.4364242 97.83973,77.1569542 C98.59887,76.8639442 115.46911,63.2541242 144.56244,39.4640842 C149.83613,35.1517142 154.49475,31.4096942 154.91494,31.1484842 C156.0912,30.4172642 157.98355,31.2727642 159.27713,33.1205642 C161.84527,36.7890042 161.716,37.1274642 156.00108,41.6977242 C153.09979,44.0179142 150.72601,46.1508742 150.72601,46.4376342 C150.72601,47.2340342 153.35639,50.6367442 153.97204,50.6367442 C154.27057,50.6367442 155.49984,49.8810342 156.70376,48.9573842 L158.89271,47.2780342 L160.64375,49.4233942 L162.3948,51.5687542 L159.96104,53.7434542 L157.52727,55.9181542 L159.45821,58.0383642 C160.78025,59.4899842 161.62853,59.9798142 162.14823,59.5917142 C166.32657,56.4714642 166.127,56.5231542 167.71735,58.1491142 C168.52273,58.9725142 169.26832,59.9684942 169.37422,60.3623942 C169.58547,61.1481642 157.56488,71.2416442 156.90579,70.8319142 C156.68142,70.6924442 155.57234,67.4894942 154.44117,63.7142442 C153.31,59.9390042 152.08083,56.8594642 151.70968,56.8708342 C151.33854,56.8822042 150.39035,57.4318642 149.60261,58.0922942 L148.17034,59.2930842 L150.30242,66.1490842 C151.47506,69.9198742 152.30018,73.0050742 152.13602,73.0050742 C151.97186,73.0050742 149.06172,71.4379942 145.66903,69.5226942 L139.50052,66.0403042 L137.70476,67.7708142 L135.909,69.5013242 L139.76556,71.6450742 C141.88667,72.8241442 144.96738,74.5507942 146.61158,75.4820642 L149.60104,77.1753042 L143.15357,82.4699642 L136.7061,87.7646342 L134.97824,85.5865142 L133.25039,83.4083942 L135.61066,81.4152342 L137.97093,79.4220742 L136.24467,77.1455842 C135.29523,75.8935242 134.38292,74.8691042 134.21733,74.8691042 C134.05172,74.8691042 132.86549,75.7061742 131.58125,76.7292642 L129.24625,78.5894242 L127.5717,76.3811342 L125.89715,74.1728442 L128.23103,72.1435642 L130.5649,70.1142842 L128.76832,67.8495242 C127.23245,65.9134342 126.81732,65.6948842 125.90778,66.3435442 C123.28921,68.2110442 100.13851,87.0188442 100.1072,87.3041342 C100.08795,87.4795042 101.67055,88.8775242 103.62408,90.4108442 C105.57762,91.9441742 111.70266,96.9034642 117.23528,101.431494 C122.7679,105.959524 127.40679,109.664284 127.54392,109.664284 C127.68106,109.664284 128.69158,108.406064 129.78954,106.868244 C132.1515,103.560044 133.4444,103.370164 136.0134,105.954204 L137.88446,107.836204 L136.25961,109.837594 C134.15136,112.434394 133.11682,114.527544 133.66773,115.081684 C133.9091,115.324454 134.46129,115.253374 134.89484,114.923714 C139.00183,111.800934 143.97949,108.940964 146.60714,108.194294 C161.85867,103.860434 175.72507,109.674194 182.38609,123.195324 L185.00999,128.521544 L185.00999,136.335164 C185.00999,144.407254 184.96343,144.612194 181.2527,152.871624 C181.09323,153.226584 182.08417,154.345004 183.45478,155.356994 C185.52367,156.884554 185.88572,157.460744 185.58704,158.750344 C185.19908,160.425424 183.21247,162.848764 181.43907,163.810214 C180.58,164.275954 179.78969,163.933584 177.83087,162.247104 L175.32267,160.087624 L172.50607,162.250154 C166.7344,166.681534 160.76878,168.701914 153.53044,168.676634 C144.96562,168.646714 138.75922,166.110354 133.12072,160.335794 C128.73934,155.848694 126.39528,151.729764 125.11574,146.269664 C123.48006,139.289834 124.09278,133.113964 127.10113,126.257984 C128.27332,123.586584 128.5011,122.477364 127.98423,121.957474 C127.46737,121.437594 126.98337,121.644944 126.10772,122.761364 C122.3288,127.579404 122.74503,127.319834 120.59314,126.200534 C119.5193,125.641984 118.33473,124.609914 117.96076,123.907064 C117.25267,122.576254 117.40581,122.227874 120.43252,118.283994 L121.68533,116.651554 L109.96346,107.103614 C103.51644,101.852244 97.95371,97.4591542 97.60185,97.3411842 C97.16903,97.1960642 97.01552,102.219114 97.12726,112.870954 L97.29241,128.615234 L100.98396,128.805764 C104.98152,129.012084 105.61284,129.494564 105.61284,132.343284 C105.61284,135.192014 104.98152,135.674484 100.98396,135.880804 C95.71902,136.152544 96.10026,137.417544 101.95937,139.117364 C109.74636,141.376494 115.29196,145.465024 119.70423,152.199884 C125.03391,160.335064 125.61396,172.020404 121.14726,181.270324 C118.105,187.570424 109.98477,194.440914 103.27148,196.394924 C96.82239,198.272044 96.98355,198.139954 96.98355,201.548874 C96.98355,204.421624 96.86496,204.649714 95.03818,205.290244 C92.84028,206.060924 93.0433,206.061484 90.34296,205.277224 Z M88.45077,187.352034 C88.6275,184.815544 88.81749,184.526214 90.65182,184.000104 C91.88441,183.646564 93.43448,183.646564 94.66706,184.000084 C96.52077,184.531754 96.69836,184.812544 96.98355,187.662694 C97.26893,190.514784 97.40983,190.737134 98.83674,190.587114 C101.84358,190.270984 107.91577,186.729944 110.8361,183.589624 C115.36997,178.714184 117.00085,174.536334 117.015571,167.759804 C117.02212,164.684164 116.66343,161.112104 116.2184,159.821914 C113.19019,151.042684 102.42533,148.567844 97.76802,155.580174 C94.9933,159.757984 96.52678,166.215714 100.82442,168.451104 C102.7156,169.434794 107.28309,169.420984 109.49257,168.424884 C110.44993,167.993274 110.5736,168.329104 110.5736,171.360604 C110.5736,174.641434 110.49276,174.812024 108.62823,175.465804 C104.18975,177.022114 97.50588,175.515434 94.86986,172.364384 C94.03775,171.369684 93.23888,170.555854 93.0946,170.555854 C92.95031,170.555854 91.85982,171.478344 90.67128,172.605834 C87.22849,175.871794 82.13146,176.934444 77.13344,175.428234 L74.74529,174.708544 L74.74529,171.323034 C74.74529,168.312134 74.86491,167.995864 75.82632,168.464724 C76.42088,168.754694 78.62684,168.994304 80.72844,168.997214 C84.12432,169.001904 84.7617,168.797934 86.45622,167.164274 C90.24958,163.507124 90.24691,157.316984 86.45043,153.749804 C80.73051,148.375344 71.34072,152.821504 69.16751,161.933444 C66.93136,171.309234 70.6718,181.540504 78.25392,186.787654 C81.3252,188.913114 87.17384,191.211774 87.83304,190.552484 C88.06641,190.319094 88.34439,188.878894 88.45077,187.352034 Z M39.27144,160.650734 C45.87118,158.317544 51.7428,152.728404 53.16151,147.428894 C54.31498,143.120194 53.41516,139.617314 50.36739,136.551714 C48.01153,134.182074 47.41688,133.896644 44.83602,133.896644 C39.86955,133.896644 36.16321,136.931604 35.40722,141.617494 C34.88879,144.830854 37.11394,149.017874 40.14052,150.524074 L42.53677,151.716574 L39.99686,153.680104 C38.5999,154.760044 37.08429,155.643634 36.62883,155.643634 C36.17338,155.643634 34.57066,154.503154 33.06723,153.109234 C29.68165,149.970264 28.10256,146.145574 28.6211,142.340304 L28.99452,139.599964 L25.9409,139.177534 C21.25752,138.529634 16.64052,134.659614 14.82697,129.861714 C14.23803,128.303624 14.38924,127.963764 16.51034,126.078364 C17.79208,124.939054 19.00526,123.995254 19.20629,123.981024 C19.40733,123.966794 19.89358,125.035404 20.28685,126.355694 C21.24958,129.587814 25.12907,132.343284 28.71689,132.343284 C33.58419,132.343284 37.68152,128.199214 37.68152,123.276404 C37.68152,117.881464 33.12408,114.009134 26.78715,114.019732 C15.34605,114.038914 5.43354,127.449544 7.46804,140.156554 C8.16291,144.496544 9.52077,148.187514 10.42251,148.187514 C10.75353,148.187514 11.8667,147.474604 12.89621,146.603254 C14.69721,145.078944 14.84015,145.056504 16.67329,146.009994 C17.72117,146.555044 19.04905,147.993474 19.62415,149.206504 L20.66977,151.412024 L18.36538,153.536194 C17.09797,154.704474 16.06099,155.767244 16.06099,155.897884 C16.06099,156.594694 22.79917,160.334644 25.2527,160.999634 C29.58428,162.173654 35.37104,162.029634 39.27144,160.650734 Z M163.51123,159.724964 C165.61672,158.770064 167.84054,157.431034 168.45307,156.749344 C169.53622,155.543894 169.5117,155.463644 167.55914,153.822824 C165.23293,151.868024 165.0343,150.259184 166.83488,147.956714 C169.20984,144.919774 170.32398,144.735914 173.04139,146.932454 L175.46744,148.893484 L176.84121,145.899794 C177.97107,143.437614 178.21497,141.802964 178.21497,136.692684 C178.21497,131.133004 178.03146,130.103374 176.47085,126.906684 C173.8502,121.538654 169.2738,116.826794 165.18692,115.288754 C157.90086,112.546744 151.67181,114.265334 148.95941,119.765924 C147.03669,123.665064 147.50229,126.304664 150.67584,129.496784 C154.72655,133.571184 159.94384,133.442774 163.66745,129.177014 C164.70369,127.989904 165.55151,126.329354 165.55151,125.486894 C165.55151,123.500684 166.02329,123.555374 168.80828,125.864424 C171.43978,128.046214 171.56359,128.709044 169.93597,131.902034 C167.86428,135.966174 163.53718,138.865354 159.28873,139.035764 L156.80299,139.135464 L157.19551,141.768264 C157.79001,145.755884 156.46407,149.283144 153.08901,152.692254 C151.48196,154.315514 149.7206,155.643634 149.17488,155.643634 C148.62915,155.643634 147.08182,154.753804 145.73637,153.666244 L143.29008,151.688864 L145.00043,150.949424 C148.00422,149.650784 149.63906,147.288704 149.97612,143.760314 C150.36673,139.671344 148.92019,136.748564 145.68398,135.087914 C140.90625,132.636244 136.38726,133.954374 133.68818,138.586924 C129.97485,144.960314 133.52736,153.614384 141.87752,158.536524 C146.25617,161.117604 149.33785,161.864384 154.74125,161.653774 C158.54072,161.505674 160.568,161.059814 163.51123,159.724964 Z" id="path2191"></path>
        </g>
    </g>
</svg>