<?xml version="1.0" encoding="UTF-8"?>
<svg width="532px" height="119px" viewBox="0 0 532 119" version="1.1" xmlns="http://www.w3.org/2000/svg" xmlns:xlink="http://www.w3.org/1999/xlink">
    <title>pionierfonds-fr</title>
    <g id="Page-1" stroke="none" stroke-width="1" fill="none" fill-rule="evenodd">
        <g id="pionierfonds-fr" transform="translate(0.399292, 0.076904)" fill="#000000" fill-rule="nonzero">
            <polygon id="Path" points="173.600708 71.6630957 173.600708 83.1530957 193.100708 83.1530957 193.100708 88.5230957 173.600708 88.5230957 173.600708 106.923096 167.480708 106.923096 167.480708 66.1730957 195.210708 66.1730957 195.210708 71.6630957"></polygon>
            <path d="M197.450708,92.1330957 C197.450708,82.6930957 203.450708,76.6930957 212.080708,76.6930957 C220.710708,76.6930957 226.660708,82.6930957 226.660708,92.1330957 C226.660708,101.573096 220.660708,107.563096 212.080708,107.563096 C203.500708,107.563096 197.450708,101.563096 197.450708,92.1330957 Z M220.720708,92.1330957 C220.720708,85.3830957 217.290708,81.6130957 212.080708,81.6130957 C206.870708,81.6130957 203.390708,85.3830957 203.390708,92.1330957 C203.390708,98.8830957 206.820708,102.653096 212.080708,102.653096 C217.340708,102.653096 220.720708,98.9230957 220.720708,92.1330957 Z" id="Shape"></path>
            <path d="M256.220708,87.1029957 L256.220708,106.923096 L250.500708,106.923096 L250.500708,87.9229957 C250.500708,83.6829957 248.270708,81.7429957 244.270708,81.7429957 C240.780708,81.7429957 236.840708,84.3129957 236.840708,90.2629957 L236.840708,106.923096 L231.120708,106.923096 L231.120708,77.4229957 L236.600708,77.4229957 L236.600708,81.8229957 C237.586708,80.2596957 238.953708,78.9723957 240.573708,78.0820957 C242.192708,77.1917957 244.012708,76.7275957 245.860708,76.7329957 C252.270708,76.6929957 256.220708,80.3529957 256.220708,87.1029957 Z" id="Path"></path>
            <path d="M289.490708,66.1730957 L289.490708,106.923096 L284.000708,106.923096 L284.000708,102.573096 C282.935708,104.172096 281.477708,105.471096 279.767708,106.347096 C278.056708,107.222096 276.150708,107.644096 274.230708,107.573096 C265.990708,107.573096 260.730708,101.573096 260.730708,92.1430957 C260.730708,82.7130957 265.990708,76.7030957 274.230708,76.7030957 C276.085708,76.6306957 277.928708,77.0215957 279.594708,77.8404957 C281.259708,78.6592957 282.695708,79.8802957 283.770708,81.3930957 L283.770708,66.1730957 L289.490708,66.1730957 Z M283.950708,92.1730957 C283.950708,85.4230957 280.570708,81.6530957 275.310708,81.6530957 C270.050708,81.6530957 266.680708,85.6530957 266.680708,92.4030957 C266.680708,99.1530957 270.050708,102.693096 275.310708,102.693096 C280.570708,102.693096 283.950708,98.9230957 283.950708,92.1330957 L283.950708,92.1730957 Z" id="Shape"></path>
            <path d="M293.380708,97.5030957 L299.090708,97.5030957 C299.550708,101.623096 301.550708,103.103096 306.350708,103.103096 C310.990708,103.103096 312.870708,101.623096 312.870708,98.9930957 C312.870708,96.6430957 311.440708,95.5030957 306.580708,94.6430957 L303.580708,94.0730957 C297.240708,92.9330957 294.210708,90.0730957 294.210708,85.2730957 C294.210708,80.0630957 298.320708,76.6930957 305.590708,76.6930957 C313.990708,76.6930957 317.880708,80.3530957 318.050708,86.5830957 L312.500708,86.5830957 C312.270708,82.3530957 309.760708,81.1530957 305.590708,81.1530957 C301.870708,81.1530957 299.870708,82.6430957 299.870708,85.0930957 C299.870708,87.5430957 301.870708,88.5830957 305.360708,89.2730957 L308.440708,89.7830957 C315.650708,91.1530957 318.680708,93.6730957 318.680708,98.5930957 C318.680708,104.363096 314.050708,107.593312 306.330708,107.593312 C298.410708,107.623096 293.780708,104.533096 293.380708,97.5030957 Z" id="Path"></path>
            <path d="M362.100708,92.1331957 C362.100708,101.563096 356.780708,107.563096 348.600708,107.563096 C346.726708,107.633096 344.863708,107.231096 343.186708,106.392096 C341.508708,105.553096 340.068708,104.305096 339.000708,102.763096 L339.000708,118.083096 L333.280708,118.083096 L333.280708,77.3831957 L338.770708,77.3831957 L338.770708,81.8331957 C339.816708,80.1916957 341.274708,78.8531957 342.999708,77.9512957 C344.724708,77.0493957 346.655708,76.6155957 348.600708,76.6931957 C356.780708,76.6931957 362.100708,82.6931957 362.100708,92.1331957 Z M356.150708,91.9031957 C356.150708,85.1531957 352.780708,81.6131957 347.520708,81.6131957 C342.260708,81.6131957 338.880708,85.3831957 338.880708,92.1331957 C338.880708,98.8831957 342.260708,102.653096 347.520708,102.653096 C352.780708,102.653096 356.150708,98.6431957 356.150708,91.9231957 L356.150708,91.9031957 Z" id="Shape"></path>
            <path d="M366.500708,67.0829957 L372.330708,67.0829957 L372.330708,73.2029957 L366.500708,73.2029957 L366.500708,67.0829957 Z M366.550708,77.3829957 L372.270708,77.3829957 L372.270708,106.923096 L366.600708,106.923096 L366.550708,77.3829957 Z" id="Shape"></path>
            <path d="M376.730708,92.1330957 C376.730708,82.6930957 382.730708,76.6930957 391.360708,76.6930957 C399.990708,76.6930957 405.940708,82.6930957 405.940708,92.1330957 C405.940708,101.573096 399.940708,107.563096 391.360708,107.563096 C382.780708,107.563096 376.730708,101.563096 376.730708,92.1330957 Z M400.000708,92.1330957 C400.000708,85.3830957 396.570708,81.6130957 391.360708,81.6130957 C386.150708,81.6130957 382.670708,85.3830957 382.670708,92.1330957 C382.670708,98.8830957 386.100708,102.653096 391.360708,102.653096 C396.620708,102.653096 400.000708,98.9230957 400.000708,92.1330957 Z" id="Shape"></path>
            <path d="M435.500708,87.1029957 L435.500708,106.923096 L429.780708,106.923096 L429.780708,87.9229957 C429.780708,83.6829957 427.550708,81.7429957 423.550708,81.7429957 C420.060708,81.7429957 416.120708,84.3129957 416.120708,90.2629957 L416.120708,106.923096 L410.400708,106.923096 L410.400708,77.4229957 L415.890708,77.4229957 L415.890708,81.8229957 C416.876708,80.2596957 418.243708,78.9723957 419.863708,78.0820957 C421.482708,77.1917957 423.302708,76.7275957 425.150708,76.7329957 C431.600708,76.6929957 435.500708,80.3529957 435.500708,87.1029957 Z" id="Path"></path>
            <path d="M466.490708,87.1029957 L466.490708,106.923096 L460.770708,106.923096 L460.770708,87.9229957 C460.770708,83.6829957 458.540708,81.7429957 454.540708,81.7429957 C451.050708,81.7429957 447.100708,84.3129957 447.100708,90.2629957 L447.100708,106.923096 L441.390708,106.923096 L441.390708,77.4229957 L446.880708,77.4229957 L446.880708,81.8229957 C447.865708,80.2589957 449.232708,78.9712957 450.852708,78.0808957 C452.472708,77.1904957 454.292708,76.7265957 456.140708,76.7329957 C462.540708,76.6929957 466.490708,80.3529957 466.490708,87.1029957 Z" id="Path"></path>
            <path d="M472.310708,67.0829957 L478.150708,67.0829957 L478.150708,73.2029957 L472.310708,73.2029957 L472.310708,67.0829957 Z M472.370708,77.3829957 L478.090708,77.3829957 L478.090708,106.923096 L472.370708,106.923096 L472.370708,77.3829957 Z" id="Shape"></path>
            <path d="M510.600708,94.0130957 L488.320708,94.0130957 C488.840708,100.013096 492.040708,102.763096 496.780708,102.763096 C500.610708,102.763096 503.070708,100.823096 504.100708,97.8430957 L509.880708,97.8430957 C508.390708,103.563096 503.760708,107.563096 496.670708,107.563096 C488.320708,107.563096 482.550708,101.623096 482.550708,92.1330957 C482.550708,82.8630957 488.150708,76.6930957 496.550708,76.6930957 C505.460708,76.6930957 510.550708,83.4930957 510.550708,92.3630957 L510.600708,94.0130957 Z M488.420708,89.5030957 L504.710708,89.5030957 C504.200708,84.9230957 501.400708,81.5030667 496.600708,81.5030667 C492.270708,81.4930957 489.120708,84.0730957 488.380708,89.5030957 L488.420708,89.5030957 Z" id="Shape"></path>
            <path d="M531.430708,76.9829957 L531.430708,82.4129957 L530.000708,82.4129957 C524.340708,82.4129957 520.790708,85.2129957 520.790708,90.8729957 L520.790708,106.873096 L515.080708,106.873096 L515.080708,77.3729957 L520.600708,77.3729957 L520.600708,82.6329957 C521.397708,80.8774957 522.696708,79.3973957 524.334708,78.3793957 C525.971708,77.3613957 527.873708,76.8510957 529.800708,76.9129957 C530.344708,76.9092957 530.888708,76.9325957 531.430708,76.9829957 Z" id="Path"></path>
            <polygon id="Path" points="203.420708 49.0629957 203.420708 25.5730957 193.350708 49.0629957 187.750708 49.0629957 177.850708 25.5730957 177.850708 49.0629957 167.430708 49.0629957 167.430708 8.3730457 181.370708 8.3730457 190.940708 31.3530957 200.960708 8.3730457 213.830708 8.3730457 213.830708 49.0629957"></polygon>
            <path d="M221.840708,49.0629957 L221.840708,8.3730457 L230.740708,8.3730457 C231.154708,8.4069857 231.542708,8.5915957 231.829708,8.8919557 C232.117708,9.1923057 232.284708,9.5875957 232.300708,10.0030957 L232.300708,49.0629957 L221.840708,49.0629957 Z" id="Path"></path>
            <path d="M261.190708,25.6329957 L274.410708,25.6329957 C274.643708,25.6386957 274.872708,25.6923957 275.083708,25.7907957 C275.294708,25.8891957 275.482708,26.0301957 275.636708,26.2047957 C275.790708,26.3793957 275.906708,26.5839957 275.978708,26.8056957 C276.049708,27.0273957 276.074708,27.2613957 276.050708,27.4929957 L276.050708,48.4929957 C271.483708,49.3783957 266.842708,49.8270957 262.190708,49.8329957 C247.010708,49.8329957 239.010708,42.6029957 239.010708,28.6429957 C239.010708,16.1929957 247.010708,7.5729957 260.350708,7.5729957 C266.220708,7.5729957 271.350708,9.1429957 274.690708,11.3729957 L270.580708,18.3729957 C267.595708,17.0586957 264.389708,16.3190957 261.130708,16.1929957 C253.460708,16.1929957 249.880708,21.2829957 249.880708,28.6429957 C249.880708,36.5129957 254.030708,41.3729957 261.680708,41.3729957 C263.198708,41.3882957 264.715708,41.2980957 266.220708,41.1029957 L266.220708,33.9229957 L261.220708,33.9229957 L261.190708,25.6329957 Z" id="Path"></path>
            <path d="M299.260708,16.2130957 L294.140708,16.2130957 L294.140708,26.4230957 L299.260708,26.4230957 C302.320708,26.4230957 304.720708,24.7929957 304.720708,20.9230957 C304.720708,17.0530957 302.320708,16.2130957 299.260708,16.2130957 Z M306.970708,49.0629957 L302.140708,37.8630957 C301.140708,35.5830957 300.470708,34.4529957 298.380708,34.4529957 L294.140708,34.4529957 L294.140708,49.0629957 L283.920708,49.0629957 L283.920708,10.0030957 C283.962708,9.5916757 284.142708,9.2066257 284.431708,8.9106257 C284.719708,8.6146357 285.100708,8.4251457 285.510708,8.3730457 L299.950708,8.3730457 C307.790708,8.3730457 314.520708,10.0029957 314.520708,20.1329957 C314.520708,24.6730957 312.000708,29.3130957 307.300708,30.2530957 C309.640708,31.0530957 312.000708,34.0630957 313.300708,37.3230957 L317.950708,49.0629957 L306.970708,49.0629957 Z" id="Shape"></path>
            <path d="M340.540708,16.2129957 C335.050708,16.2129957 331.150708,20.1429957 331.150708,28.6629957 C331.150708,37.1829957 335.050708,41.2329957 340.540708,41.2329957 C345.250708,41.2329957 349.100708,37.3229957 349.100708,28.6629957 C349.100708,20.0029957 345.250708,16.2129957 340.540708,16.2129957 Z M340.540708,49.8529957 C327.220708,49.8529957 320.170708,40.4429957 320.170708,28.6629957 C320.170708,16.8829957 327.220708,7.5930157 340.540708,7.5930157 C353.020708,7.5930157 360.080708,17.0029957 360.080708,28.6629957 C360.080708,40.3229957 353.020708,49.8529957 340.540708,49.8529957 Z" id="Shape"></path>
            <path d="M380.110708,49.8529957 C373.230708,49.8529957 366.840708,47.3829957 363.990708,45.4329957 L368.600708,37.2029957 C371.190708,38.7729957 376.220708,41.2029957 380.860708,41.2029957 C383.490708,41.2029957 386.810708,40.7029957 386.810708,37.7829957 C386.810708,35.0429957 383.100708,34.2029957 378.240708,32.7829957 C372.370708,31.1029957 365.530708,28.7829957 365.530708,20.8629957 C365.530708,12.3529957 373.090708,7.5930157 382.930708,7.5930157 C389.430708,7.5930157 394.470708,9.8930157 397.030708,12.3529957 L391.390708,18.7829957 C388.590708,17.1129957 385.740708,15.7829957 382.540708,15.7829957 C378.680708,15.7829957 376.540708,17.2529957 376.540708,19.3829957 C376.540708,21.5129957 379.340708,22.5629957 382.860708,23.6229957 C389.080708,25.5429957 397.580708,27.5129957 397.580708,35.6229957 C397.580708,44.0129957 390.870708,49.7829957 380.120708,49.7829957" id="Path"></path>
            <path d="M133.460708,8.9230557 C130.631708,6.0941257 127.273708,3.8500757 123.578708,2.3190457 C119.882708,0.7880137 115.920708,0 111.920708,0 C107.920708,0 103.958708,0.7880137 100.262708,2.3190457 C96.5673082,3.8500757 93.2092082,6.0941257 90.3807082,8.9230557 L76.0407082,23.2730957 L97.6007082,44.8130957 C101.774708,48.8807957 104.975708,53.8394957 106.963708,59.3184957 C108.951708,64.7974957 109.675708,70.6549957 109.080708,76.4530957 L133.490708,52.0430957 C139.205708,46.3271957 142.415708,38.5755957 142.415708,30.4930957 C142.415708,22.4104957 139.205708,14.6589957 133.490708,8.9430557" id="Path"></path>
            <path d="M91.5407082,51.0730957 L52.0107082,11.5330957 C46.2979082,5.8190257 38.5492082,2.60742549 30.4692082,2.60742549 C22.3892082,2.60742549 14.6398082,5.8153557 8.92569821,11.5280957 C3.21160821,17.2408957 -7.10542736e-15,24.9895957 -7.10542736e-15,33.0695957 C-7.10542736e-15,41.1495957 3.20792821,48.8989957 8.92069821,54.6130957 L70.0007082,115.703096 L91.5407082,94.1530957 C94.3696082,91.3245957 96.6137082,87.9664957 98.1447082,84.2706957 C99.6757082,80.5747957 100.463708,76.6135957 100.463708,72.6130957 C100.463708,68.6126957 99.6757082,64.6513957 98.1447082,60.9555957 C96.6137082,57.2596957 94.3696082,53.9016957 91.5407082,51.0730957 Z" id="Path"></path>
        </g>
    </g>
</svg>