<?xml version="1.0" encoding="UTF-8"?>
<svg width="600px" height="115px" viewBox="0 0 600 115" version="1.1" xmlns="http://www.w3.org/2000/svg" xmlns:xlink="http://www.w3.org/1999/xlink">
    <title>parmigiani-fleurier-vector-logo</title>
    <g id="Page-1" stroke="none" stroke-width="1" fill="none" fill-rule="evenodd">
        <g id="parmigiani-fleurier-vector-logo" fill="#000000" fill-rule="nonzero">
            <path d="M269.8,70.3 L269.8,69.4 L261.6,66 L259,6.8 L267.2,3.4 L267.2,2.5 L247.3,2.5 L228.4,45.6 L228.2,45.6 L209.4,2.5 L189.1,2.5 L189.1,3.4 L197.3,6.8 L194.7,66 L188,69.4 L188,70.3 L210.5,70.3 L210.5,69.4 L201.4,66 L203,19.6 L203.3,19.6 L224.1,64.9 L226,64.9 L246.8,18.2 L247.1,18.2 L248.8,66 L240.6,69.4 L240.6,70.3 L269.8,70.3 Z M56.9,23.8 C56.9,9.8 46.1,2.3 31.4,2.3 L0,2.3 L0,3.2 L8.2,6.6 L8.2,65.8 L0,69.2 L0,70.1 L31.4,70.1 L31.4,69.2 L21.1,65.8 L21.1,45.9 L31.9,45.9 C45.5,46 56.9,37.5 56.9,23.8 M186.1,70.3 L186.1,69.4 L180.5,66 L161.9,40.7 C171.5,38 179,32.7 179,21.8 C179,9.8 167.9,2.4 153.6,2.4 L122.8,2.4 L122.8,3.3 L131,6.7 L131,65.9 L123.7,69.3 L123.7,70.2 L152.2,70.2 L152.2,69.3 L144,65.9 L144,6.9 L151.5,6.9 C159.3,6.9 165.5,12.4 165.5,22.7 C165.5,33.5 159.1,38.7 150.8,38.7 L146.4,38.7 L146.4,39.8 L167.9,70.3 L186.1,70.3 L186.1,70.3 Z M562.9,70.3 L562.9,69.4 L555,66 L555,6.8 L563.2,3.4 L563.2,2.5 L538.8,2.5 L538.8,3.4 L548.1,6.8 L548.1,53.5 L547.9,53.5 L509.5,2.3 L490,2.3 L490,3.2 L499.6,6.9 L499.6,65.9 L492.2,69.3 L492.2,70.2 L515.8,70.2 L515.8,69.3 L506.5,65.9 L506.5,19.1 L506.7,19.1 L545.1,70.3 L562.9,70.3 L562.9,70.3 Z M101.6,65.9 L93.4,69.3 L93.4,70.2 L121.7,70.2 L121.7,69.3 L115.6,65.9 L92.8,6.7 L100.8,3.3 L100.8,2.4 L71.4,2.4 L71.4,3.3 L79.3,6.7 L56.4,65.9 L48.1,69.3 L48.1,70.2 L73.7,70.2 L73.7,69.3 L63.8,65.9 L70.4,47.8 L95.1,47.8 L101.6,65.9 Z M470.3,65.9 L462.1,69.3 L462.1,70.2 L490.3,70.2 L490.3,69.3 L484.3,65.9 L461.5,6.7 L469.5,3.3 L469.5,2.4 L440.1,2.4 L440.1,3.3 L448,6.7 L425.1,65.9 L419.2,69.3 L419.2,70.2 L442.5,70.2 L442.5,69.3 L432.6,65.9 L439.2,47.8 L463.9,47.8 L470.3,65.9 Z M377.4,66.9 L377.4,47.5 L385.3,44.1 L385.3,43.2 L353.4,43.2 L353.4,44.1 L364.4,47.5 L364.4,65.9 C361,67.3 357.5,68 353.8,67.9 C335.8,67.9 328,53.2 328,36.8 C328,19.4 335.8,5 353.8,5 C359,5 364.2,6.2 368.9,8.4 L375.5,23.8 L376.8,23.8 L376.8,5.1 C369.1,1.8 360.9,0.1 352.6,0 C327.7,0 314,15.8 314,36.3 C314,57 326.4,72.5 352.4,72.5 C361.1,72.6 369.6,70.6 377.4,66.9 M600,70.3 L600,69.4 L591.8,66 L591.8,6.8 L600,3.4 L600,2.5 L570.7,2.5 L570.7,3.4 L578.9,6.8 L578.9,66 L570.7,69.4 L570.7,70.3 L600,70.3 Z M305.9,70.3 L305.9,69.4 L297.7,66 L297.7,6.8 L305.9,3.4 L305.9,2.5 L276.6,2.5 L276.6,3.4 L284.8,6.8 L284.8,66 L276.6,69.4 L276.6,70.3 L305.9,70.3 Z M417.3,70.3 L417.3,69.4 L409.7,66 L409.7,6.8 L417.9,3.4 L417.9,2.5 L388.5,2.5 L388.5,3.4 L396.7,6.8 L396.7,66 L388.5,69.4 L388.5,70.3 L417.3,70.3 Z M43.4,23.8 C43.4,34.5 38.1,41.4 28.1,41.4 L21.1,41.4 L21.1,6.8 L28.2,6.8 C37.4,6.9 43.4,12.5 43.4,23.8 M82.8,13.8 L83,13.8 L93.4,42.9 L72.1,42.9 L82.8,13.8 Z M451.5,13.8 L451.7,13.8 L462.1,42.9 L440.9,42.9 L451.5,13.8 Z" id="Shape"></path>
            <path d="M207.6,103.7 L212.3,103.7 L213.4,106.6 L214,106.6 L214,99.3 L213.4,99.3 L212.3,101.9 L207.6,101.9 L207.6,93.2 L213.8,93.2 L215.6,97.5 L216.3,97.5 L216.3,91.4 L200.7,91.4 L200.7,92 L203.3,93.1 L203.3,111.8 L200.7,112.9 L200.7,113.5 L211.1,113.5 L211.1,112.9 L207.6,111.8 L207.6,103.7 Z M239.5,113.5 L239.5,106.5 L238.8,106.5 L237,111.7 L231.6,111.7 L231.6,93.2 L234.8,92.1 L234.8,91.5 L224.7,91.5 L224.7,92.1 L227.3,93.2 L227.3,111.8 L224.7,112.9 L224.7,113.5 L239.5,113.5 Z M264,113.5 L264,107.1 L263.3,107.1 L261.6,111.7 L254.8,111.7 L254.8,102.9 L259,102.9 L260.1,105.5 L260.7,105.5 L260.7,98.5 L260.1,98.5 L259,101.1 L254.8,101.1 L254.8,93.1 L260.7,93.1 L262.4,97.1 L263.1,97.1 L263.1,91.3 L248,91.3 L248,91.9 L250.6,93 L250.6,111.8 L248,112.9 L248,113.5 L264,113.5 L264,113.5 Z M284.4,114.2 C279.1,114.2 275.5,111.1 275.5,106.3 L275.5,93.1 L272.9,92 L272.9,91.4 L282.4,91.4 L282.4,92 L279.8,93.1 L279.8,105.9 C279.8,109.6 281.4,112 285.3,112 C288.3,112.2 290.8,109.9 291,107 C291,106.6 291,106.3 291,105.9 L291,93.1 L288.1,92 L288.1,91.4 L296.3,91.4 L296.3,92 L293.7,93.1 L293.7,106.3 C293.5,111.2 290.1,114.2 284.4,114.2 M339.1,111.8 L339.1,93.2 L341.7,92.1 L341.7,91.5 L332.2,91.5 L332.2,92.1 L334.8,93.2 L334.8,111.8 L332.2,112.9 L332.2,113.5 L341.7,113.5 L341.7,112.9 L339.1,111.8 Z M325.6,113.5 L325.6,112.9 L323.5,111.8 L316.9,104.1 C320,103.7 322.3,101 322.3,97.9 C322.3,94.1 318.8,91.5 314.1,91.5 L304.1,91.5 L304.1,92.1 L306.7,93.2 L306.7,111.8 L304.1,112.9 L304.1,113.5 L313.6,113.5 L313.6,112.9 L311,111.8 L311,93.3 L313.4,93.3 C315.8,93.2 317.9,95.1 318,97.6 C318,97.9 318,98.1 318,98.4 C318.3,100.8 316.6,103 314.1,103.3 C313.9,103.3 313.7,103.3 313.5,103.3 L311.8,103.3 L311.8,103.7 L319.8,113.6 L325.6,113.5 Z M366.4,113.5 L366.4,107.1 L365.7,107.1 L364,111.7 L357.2,111.7 L357.2,102.9 L361.4,102.9 L362.5,105.5 L363.1,105.5 L363.1,98.5 L362.5,98.5 L361.4,101.1 L357.2,101.1 L357.2,93.1 L363.1,93.1 L364.8,97.1 L365.5,97.1 L365.5,91.3 L350.4,91.3 L350.4,91.9 L353,93 L353,111.8 L350.4,112.9 L350.4,113.5 L366.4,113.5 L366.4,113.5 Z M397.3,113.5 L397.3,112.9 L395.2,111.8 L388.6,104.1 C391.7,103.7 394,101 394,97.9 C394,94.1 390.5,91.5 385.8,91.5 L375.8,91.5 L375.8,92.1 L378.4,93.2 L378.4,111.8 L375.8,112.9 L375.8,113.5 L385.3,113.5 L385.3,112.9 L382.7,111.8 L382.7,93.3 L385.1,93.3 C387.5,93.2 389.6,95.1 389.7,97.6 C389.7,97.9 389.7,98.1 389.7,98.4 C390,100.8 388.3,103 385.8,103.3 C385.6,103.3 385.4,103.3 385.2,103.3 L383.5,103.3 L383.5,103.7 L391.5,113.6 L397.3,113.5 Z" id="Shape"></path>
        </g>
    </g>
</svg>