<svg id="Layer_1" data-name="Layer 1" xmlns="http://www.w3.org/2000/svg" viewBox="0 0 126.64 84.99"><defs><style>.cls-1{fill:#1d1d1b;}</style></defs><title>P10-NB</title><path class="cls-1" d="M424.49,277.9a24.59,24.59,0,0,1,23.7-4l15.21-12.23a42.51,42.51,0,0,0-63.12,50.75l15.2-12.22a24.6,24.6,0,0,1,9-22.29" transform="translate(-355.78 -254.6)"/><path class="cls-1" d="M455.36,316.29a24.58,24.58,0,0,1-23.7,4l-15.21,12.23a42.5,42.5,0,0,0,63.12-50.75L464.36,294a24.57,24.57,0,0,1-9,22.28" transform="translate(-355.78 -254.6)"/><path class="cls-1" d="M444.36,290.23a2.39,2.39,0,1,0,3.36.37A2.4,2.4,0,0,0,444.36,290.23Z" transform="translate(-355.78 -254.6)"/><polygon class="cls-1" points="67.61 56.87 69.48 55.37 66.77 53.94 67.61 56.87"/><path class="cls-1" d="M451,284.91l-.68.55,1.34,1.67c.89-.81,1.06-1.51.6-2.08a.88.88,0,0,0-1.26-.14Z" transform="translate(-355.78 -254.6)"/><path class="cls-1" d="M411.11,317l-.7.56,1.2,1.5.71-.56a.87.87,0,0,0,.32-.59.86.86,0,0,0-.22-.67,1.08,1.08,0,0,0-.66-.42A.86.86,0,0,0,411.11,317Z" transform="translate(-355.78 -254.6)"/><path class="cls-1" d="M466.71,264.11,402,316.18a42.42,42.42,0,0,0,4.85,7.55,43.26,43.26,0,0,0,6.33,6.36L477.89,278a42.5,42.5,0,0,0-11.18-13.9Zm-52.37,54a2.68,2.68,0,0,1-1,1.8l-.62.5,1.74,2.16-1.42,1.14-5.11-6.36,2-1.64a2.7,2.7,0,0,1,4.37,2.4Zm7.84-1.74-3.84,3.09-5.11-6.36,1.42-1.15,4,4.94L421,315Zm5.85-4.71h0l-1.1-.6-2.83,2.27.36,1.23-1.53,1.23,0,0-2.52-8.39,1.51-1.22h0l7.67,4.29Zm1.78-9.55-1.28,1,4,4.94-1.42,1.14-4-4.93-1.29,1-1.14-1.42,4-3.22Zm5.22-4.2-2.27,1.83.83,1,1.63-1.3,1.14,1.42-1.62,1.31.84,1,2.27-1.82,1.15,1.42-3.7,3-5.11-6.36,3.69-3Zm5.36-4.31-2.27,1.83.84,1,1.62-1.3,1.14,1.42-1.62,1.3,2,2.47-1.42,1.15-5.11-6.36,3.69-3Zm8.11,1.78h0a4.22,4.22,0,1,1-2.19-7.47,4.16,4.16,0,0,1,2.83,1.55A4.21,4.21,0,0,1,448.5,295.38Zm8.52-7-1.46,1.17-3.74-2.15,2.52,3.13-1.42,1.15-5.12-6.36,2-1.64a2.64,2.64,0,0,1,3.78.41,2.57,2.57,0,0,1,.4,2.65Zm8.3-6.68,0,0-3.64-3.2,1.5,5-1.48,1.19h0l-4.49-2.5,2.35,4.25-1.5,1.2,0,0-4-7.22,1.48-1.19h0l5.38,3-1.8-5.93,1.48-1.19,0,0,6.2,5.44Zm2.4-10.06-2.3,1.85.84,1,1.65-1.33,1.14,1.43-1.64,1.31.84,1.05,2.29-1.84,1.15,1.42-3.72,3-5.11-6.36,3.71-3Z" transform="translate(-355.78 -254.6)"/><polygon class="cls-1" points="11.97 1.41 0 11.05 0 28.88 7.64 22.74 11.97 19.25 11.97 19.25 29.82 4.91 29.82 1.41 11.97 1.41"/><polygon class="cls-1" points="11.97 24.36 11.97 83.58 29.82 83.58 29.82 10.02 11.97 24.36"/></svg>