<svg xmlns="http://www.w3.org/2000/svg" width="187" height="91"><path fill="#FFF" d="M185.605 61.452c.199 0 .366.138.41.325l.012.092.016 1.045.006.947v.863a61.086 61.086 0 01-.415 6.262 24.092 24.092 0 01-.348 2.037l-.155.672-.14.525a26.942 26.942 0 01-2.458 6.129 39.118 39.118 0 01-5.67 7.658l-.51.528-.696.74-.614.634c-.125.127-.243.244-.356.35-.275.338-.647.58-1.063.698l-.18.043h-.06a2.22 2.22 0 01-1.258-.74 15.409 15.409 0 01-.544-.54l-.412-.432-.22-.235-.474-.496a38.726 38.726 0 01-6.196-8.186 27.09 27.09 0 01-2.266-5.49l-.176-.638-.133-.526-.125-.537a23.745 23.745 0 01-.371-2.172 61.508 61.508 0 01-.444-6.262l-.012-.666-.004-.598.002-.84.014-.782a.407.407 0 01.333-.4l.081-.008h24.426zm-53.137-32.337c7.118 18.466 1.478 39.415-13.948 51.812-15.272 12.273-36.665 13.375-53.103 2.796l-.497-.325 16.284-13.093a26.328 26.328 0 0024.993-3.997l.365-.289v.023a26.343 26.343 0 009.675-23.395l-.053-.446 16.284-13.086zm30.954 47.437a26.18 26.18 0 001.584 3.442 37.749 37.749 0 005.56 7.499l.502.517.473.496v-.03l.805.852.335.347c.139.14.291.264.455.372l.167.102-9.881-13.597zm.784-1.999h-1.399l.046.16.05.159 10.896 15.07.155-.13.148-.137v-.03l.438-.422.162-.155-10.496-14.515zM31.901 10.721v78.717H12.812V26.072l19.09-15.35zm134.452 63.862h-1.532l10.251 14.108.688-.689.215-.222-9.622-13.197zm.614-.03l9.304 12.813c.197-.212.388-.421.575-.63l.276-.31-8.623-11.843-1.532-.03zm3.716.03h-1.532l8.327 11.465.416-.492.405-.492-7.616-10.48zm2.183 0h-1.54l7.314 10.059.397-.514.387-.515-6.558-9.03zm2.176 0h-1.524l6.232 8.586c.168-.232.335-.477.499-.722l.241-.366-5.448-7.498zm2.22 0h-1.531l5.1 7.024.527-.87.168-.284-4.263-5.87zm-58.554-64.41a45.668 45.668 0 0111.647 14.272l.314.613-69.294 55.72a45.594 45.594 0 01-11.647-14.264l-.314-.613 69.294-55.727zm60.738 64.41h-1.576l3.9 5.366c.149-.271.293-.546.433-.822l.204-.414-2.96-4.13zm.644-.03l2.606 3.59a28.7 28.7 0 00.385-.89l.177-.45-1.636-2.22-1.532-.03zm3.894.03h-1.747l1.206 1.665.037-.03c.15-.41.292-.825.403-1.232l.1-.403zm-122.76-9.46a2.887 2.887 0 00-3.023.153l-.164.122-2.22 1.754 5.469 6.802 1.517-1.221-1.858-2.317.66-.526a2.85 2.85 0 001.035-1.726l.03-.205h.037a2.887 2.887 0 00-1.483-2.836zm123.951-2.805h-23.618v2.443c.042 2.064.187 4.124.436 6.173.096.758.228 1.51.394 2.255l.132.558h21.687c.232-.927.41-1.866.533-2.813a61.5 61.5 0 00.382-5.142l.025-1.031.037-.03.012-.775.003-.673-.006-.551-.01-.292a6.82 6.82 0 00-.007-.122zm-14.803 7.476c.091 0 .173.052.214.13l.807 2.283.003.037-.003.037a.148.148 0 01-.155.156.17.17 0 01-.17-.119l-.17-.503h-1.074l-.177.503a.163.163 0 01-.163.119.155.155 0 01-.163-.156.266.266 0 01.03-.074l.799-2.22c.044-.126.11-.193.222-.193zm6.476.015a.17.17 0 01.17.17v2.28a.17.17 0 11-.34 0v-2.28a.17.17 0 01.17-.17zm-3.582.015a.163.163 0 01.17.163.155.155 0 01-.17.155h-.6v2.11a.163.163 0 01-.162.177.17.17 0 01-.178-.177v-2.11h-.6a.155.155 0 01-.17-.155.163.163 0 01.17-.163h1.54zm2.366.168a.74.74 0 01.247.557.696.696 0 01-.496.703l.466.918.006.048-.006.048a.155.155 0 01-.163.156.17.17 0 01-.162-.104l-.519-1.014h-.584v.918a.17.17 0 01-.34 0v-2.258a.148.148 0 01.155-.155h.814a.74.74 0 01.582.183zm-6.65.184a.785.785 0 01-.742 1.195h-.6v.866a.163.163 0 01-.162.177.17.17 0 01-.178-.177l-.022-2.273a.148.148 0 01.155-.155h.807a.785.785 0 01.743.367zm10.405-.367a.163.163 0 01.17.163.155.155 0 01-.17.155h-1.125v.74h.925a.163.163 0 01.17.163.155.155 0 01-.17.156h-.94v.8h1.125a.155.155 0 01.17.155.163.163 0 01-.17.162h-1.34a.14.14 0 01-.153-.113l.013-2.226a.148.148 0 01.155-.155h1.34zm-8.97.474l-.423 1.184h.837l-.415-1.184zm-2.17-.156h-.584v.881h.585a.444.444 0 00.488-.444l.022.03a.452.452 0 00-.51-.467zm6.832 0h-.614v.822h.614a.422.422 0 00.46-.385h.022a.422.422 0 00-.482-.437zM62.981 61.371L61.5 62.6l5.447 6.824 4.108-3.301-1.236-1.54-2.59 2.073-4.25-5.285zm110.692 5.995l1.073.008a.118.118 0 010 .237h-.407v1.325a.126.126 0 01-.126.133.126.126 0 01-.133-.133v-1.333h-.407a.118.118 0 010-.237zm-.644.008a.118.118 0 110 .237h-.777v.459h.644a.111.111 0 01.118.118.118.118 0 01-.118.118h-.644v.474h.777a.111.111 0 01.111.119.118.118 0 01-.11.118h-.94a.096.096 0 01-.105-.104v-1.436a.096.096 0 01.104-.103h.94zm-113.15-.881c.256.042.488.17.66.359l.08.1c.187.198.274.47.238.74a.918.918 0 01-.256.547l-.092.082-.74.607-1.296-1.606.74-.607a.94.94 0 01.667-.222zm116.049-2.29a.74.74 0 01.24.453l.007.105a.696.696 0 01-.496.74l.466.918a.23.23 0 010 .096c0 .09-.073.163-.163.163a.17.17 0 01-.162-.111l-.519-1.014h-.555v.918a.17.17 0 01-.34 0l-.03-.008V64.17a.14.14 0 01.156-.148h.814a.74.74 0 01.582.183zm-7.532-.19a.17.17 0 01.17.17v2.28a.17.17 0 01-.34 0v-2.28a.17.17 0 01.17-.17zm2.006.008c.525 0 .784.266.784.68a.548.548 0 01-.265.53l-.083.04a.607.607 0 01.4.608c0 .488-.318.74-.844.74h-.829a.14.14 0 01-.155-.156l.03-2.294a.14.14 0 01.155-.148h.807zm8.045 0a.155.155 0 01.17.155.163.163 0 01-.17.163h-.6v2.102a.17.17 0 01-.34 0V64.34h-.607a.155.155 0 01-.163-.163.148.148 0 01.163-.155h1.547zm-12.346-.022a.17.17 0 01.17.185v2.102h1.133a.163.163 0 110 .318h-1.332a.155.155 0 01-.163-.17l.022-2.25a.163.163 0 01.17-.185zm7.38.022a.155.155 0 01.17.155.163.163 0 01-.17.163h-1.133v.74h.918a.155.155 0 01.17.156.163.163 0 01-.17.163h-.947v.792h1.132a.163.163 0 110 .318h-1.34a.14.14 0 01-.155-.156l.03-2.183a.14.14 0 01.155-.148h1.34zm7.26 0a.155.155 0 01.17.155.163.163 0 01-.17.163h-1.132v.74h.94a.155.155 0 01.17.156.163.163 0 01-.17.163h-.94v.792h1.133a.163.163 0 110 .318h-1.347a.14.14 0 01-.148-.156V64.17a.133.133 0 01.148-.148h1.347zm-10.325 1.436h-.614v.858h.614a.43.43 0 000-.858zM70.79 55.147l-1.621 1.302 2.694 8.97v.053l1.636-1.28-.378-1.311 3.02-2.435 1.177.636 1.673-1.354-8.201-4.582zm104.585 9.192h-.629v.822h.615a.422.422 0 00.473-.393h.023c0-.273-.178-.429-.482-.429zm-4.98-.007h-.593v.74l.592.074a.407.407 0 00.459-.407c0-.252-.17-.407-.459-.407zm9.917-1.17a.126.126 0 01.129.092l.005.034c.01.034.01.07 0 .104l-.267.288a.155.155 0 01-.118.06.126.126 0 01-.119-.126c0-.026.008-.051.02-.074l.247-.326a.14.14 0 01.103-.052zM61.573 10.04C76.845-2.238 98.241-3.343 114.681 7.237l.497.324-16.284 13.086a26.35 26.35 0 00-25 3.997l-.366.289h.015a26.357 26.357 0 00-9.675 23.401l.053.447L47.637 61.86c-7.124-18.466-1.49-39.42 13.936-51.82zm9.875 47.676l2.902 1.532-1.999 1.606-.903-3.138zm93.957-3.153a.414.414 0 01.222.051c.64.41 1.013 1.13.977 1.888a2.146 2.146 0 01-1.517 2.176c-.385.11-.781.172-1.18.185h-.3c-.5.011-.999-.05-1.48-.185a2.132 2.132 0 01-1.518-2.176 2.11 2.11 0 01.985-1.888.414.414 0 01.222-.051.34.34 0 01.347.347.4.4 0 01-.207.348c-.402.282-.63.753-.6 1.244a1.362 1.362 0 001.007 1.42c.41.123.838.176 1.266.156a3.7 3.7 0 001.25-.155 1.362 1.362 0 00.985-1.421c.03-.49-.197-.962-.6-1.244a.4.4 0 01-.206-.348.34.34 0 01.347-.347zm4.826-9.12c.175.006.348.042.511.104l14.011 5.389c.852.31 1.125.614 1.125 1.191 0 .578-.273.889-1.125 1.2v-.075l-14.011 5.389a1.54 1.54 0 01-.51.096.866.866 0 01-.889-.918.925.925 0 01.681-.888l12.82-4.87-12.82-4.804a.925.925 0 01-.68-.888.873.873 0 01.887-.925zm-92.247 3.872l-4.278 3.442 1.229 1.524 1.369-1.11 4.263 5.3 1.525-1.222-4.241-5.277 1.37-1.11-1.237-1.547zm5.596-4.463l-3.953 3.175 5.47 6.802 3.953-3.175-1.222-1.525-2.427 1.954-.903-1.118 1.739-1.391-1.229-1.525-1.74 1.399-.887-1.118 2.427-1.954-1.228-1.524zm82.58 4.315a.363.363 0 01.37.4.4.4 0 01-.163.323l-.458.276a2.28 2.28 0 01.702 1.629l-.007.214c0 1.214-.68 1.998-1.739 1.998-1.058 0-1.754-.784-1.754-2.22v-1.48h-.407c-.992 0-1.4.407-1.4 1.413.011.442.13.874.349 1.259.052.076.08.166.081.259a.348.348 0 01-.363.362.422.422 0 01-.31-.155 3.013 3.013 0 01-.49-1.554l.001-.208c0-1.48.659-2.124 2.08-2.124h2.294a1.08 1.08 0 00.578-.111l.43-.222a.452.452 0 01.206-.06zm-1.487 1.14h-.844v1.361c0 1.081.31 1.54 1.036 1.54.725 0 1-.74 1-1.34 0-.962-.452-1.561-1.192-1.561zM89.346 40.21l-3.953 3.182 5.47 6.803 1.525-1.222-2.124-2.642 1.739-1.392-1.229-1.524-1.732 1.391-.895-1.11 2.398-1.94-1.2-1.546zm73.365 3.523h3.324a.37.37 0 01.407.385h.066a.37.37 0 01-.327.384h-3.277c-1.103 0-1.636.467-1.636 1.422a1.429 1.429 0 001.48 1.48h3.294a.385.385 0 110 .74h-5.07a.385.385 0 110-.74h.2a1.976 1.976 0 01-.685-1.453l.004-.168c0-1.288.829-2.05 2.22-2.05zm22.264-12.65l.015.015a.88.88 0 01.859.977.97.97 0 01-.577.888l-1.296.785v.067c1.333 1.191 2.08 2.627 2.08 5.18 0 3.14-1.702 5.56-4.811 5.56s-4.84-2.221-4.84-6.174v-4.16c0-.133-.067-.2-.208-.2h-1.155c-2.694 0-4.196 1.022-4.196 4.227a7.727 7.727 0 001.021 3.701c.132.192.204.419.207.651a.807.807 0 01-.85.852 1.029 1.029 0 01-.741-.378 8.4 8.4 0 01-1.362-4.944c0-4.027 1.806-5.922 5.796-5.922h6.587a3.242 3.242 0 001.732-.34l1.229-.651c.16-.08.333-.125.51-.134zm-85.037 6.218a4.53 4.53 0 00-6.344-.689 4.515 4.515 0 005.47 7.162l.185-.13.172-.145a4.515 4.515 0 00.517-6.198zm66.395 2.824c.127.085.19.238.16.388l.008-.007v.155c0 1.088-.444 1.518-1.584 1.518h-3.546v.466a.348.348 0 01-.355.377.34.34 0 01-.348-.304v-.532h-1.48a.392.392 0 110-.777h1.48v-.903a.34.34 0 01.348-.378.348.348 0 01.354.304l.001.977h3.516c.689 0 .866-.185.866-.896a.377.377 0 01.58-.388zM94.808 38.13a2.576 2.576 0 013.597.392 2.561 2.561 0 11-3.735-.274l.138-.118zm85.911-4.145h-2.427a.178.178 0 00-.2.145v3.94c0 3.243.984 4.604 3.168 4.604 2.013 0 3.072-1.391 3.072-4.019 0-2.798-1.362-4.67-3.613-4.67zm-77.912-3.526a2.835 2.835 0 00-1.956.511l-.166.128-2.176 1.754 5.47 6.803 1.517-1.222-2.694-3.353 4.004 2.295 1.555-1.251-3.19-1.747c.4-.95.234-2.045-.43-2.835-.47-.608-1.169-1-1.934-1.083zm62.28 4.606a2.169 2.169 0 011.523 2.055l-.006.154.003.146a2.154 2.154 0 01-1.52 2.012c-.97.251-1.99.251-2.96 0a2.332 2.332 0 010-4.367 4.64 4.64 0 011.18-.192h.3c.5-.015 1 .05 1.48.192zm-1.502.622a3.7 3.7 0 00-1.251.148 1.414 1.414 0 00-1.02 1.347l.006.104a1.421 1.421 0 001.014 1.429 3.7 3.7 0 001.25.155c.426.02.851-.033 1.259-.155a1.532 1.532 0 000-2.88 3.782 3.782 0 00-1.258-.148zm-51.42-13.797l-1.584 1.274 1.925 6.343-5.759-3.227-1.584 1.273 4.256 7.727 1.599-1.288-2.51-4.552 4.804 2.68 1.607-1.273-1.607-5.315 3.93 3.45 1.585-1.266-6.662-5.826zm-9.74 10.331l.125.002a.97.97 0 01.644.363c.469.58.33 1.273-.492 2.077l-.152.143-1.436-1.783.74-.585a.984.984 0 01.571-.217zm63.904-2.768a.37.37 0 01.113.29l.066-.007a.37.37 0 01-.327.385h-3.277c-1.103 0-1.636.466-1.636 1.421a1.429 1.429 0 001.48 1.48h3.294a.392.392 0 110 .74h-5.07a.392.392 0 110-.74h.2a1.976 1.976 0 01-.685-1.453l.004-.167c0-1.28.829-2.05 2.22-2.05h3.324a.37.37 0 01.294.101zM31.901 1.513V5.26L0 30.913V11.824l12.812-10.31h19.09zm153.84 14.773a.925.925 0 01-.87 1.408l.023.037h-1.125c1.48.918 2.317 2.457 2.317 4.737 0 3.582-2.22 5.625-6.21 5.625h-9.57a.918.918 0 010-1.836h9.103c3.242 0 4.878-1.369 4.878-4.196a4.256 4.256 0 00-4.53-4.367h-9.452a.925.925 0 110-1.843h14.567a.925.925 0 01.87.435zm-67.18.386l-3.976 3.198 5.47 6.81 3.975-3.198-1.221-1.525-2.45 1.976-.918-1.102 1.762-1.407-1.23-1.525-1.746 1.451-.896-1.117 2.487-2.014-1.258-1.547zm47.908 5.107a.385.385 0 01-.42.593h-.185c.488.4.746 1.015.689 1.643h.051a1.991 1.991 0 01-1.48 2.013 6.07 6.07 0 01-3.146 0 1.991 1.991 0 01-1.48-2.013 1.88 1.88 0 01.688-1.643h-2.62a.385.385 0 110-.74h7.483a.385.385 0 01.42.147zm-4.202.755a1.347 1.347 0 00-.97 1.4c-.035.632.37 1.205.977 1.383a5.448 5.448 0 002.584 0 1.362 1.362 0 001.006-1.384 1.347 1.347 0 00-.94-1.399 6.343 6.343 0 00-2.657 0zm1.221-6.698a.355.355 0 01.363.363v3.53c.327.024.656-.014.97-.11a1.48 1.48 0 001.043-1.54 1.895 1.895 0 00-.621-1.48.414.414 0 01-.141-.282.34.34 0 01.34-.355.37.37 0 01.252.089c.613.51.952 1.276.918 2.072l-.008-.007a2.132 2.132 0 01-1.532 2.22c-.48.145-.98.207-1.48.185-.5.02-1-.042-1.48-.185a2.295 2.295 0 010-4.315c.445-.137.91-.2 1.376-.185zm-.377.829a2.465 2.465 0 00-.792.096 1.421 1.421 0 00-1.022 1.48l.008-.051a1.414 1.414 0 001.021 1.48c.255.074.52.109.785.104v-3.11zM185.734.439a.925.925 0 01-.87 1.408h-1.169v.037c1.399.784 2.39 2.22 2.39 4.87a5.551 5.551 0 01-4.026 5.596 17.424 17.424 0 01-8.882 0 5.551 5.551 0 01-4.026-5.596c0-2.657.991-4.086 2.39-4.87v-.037H163.4a.925.925 0 110-1.843h21.464a.925.925 0 01.87.435zM173.71 2.254a4.056 4.056 0 00-2.827 4.197 4.108 4.108 0 002.96 4.16c2.487.596 5.079.596 7.565 0a4.108 4.108 0 002.96-4.16 4.056 4.056 0 00-2.827-4.197h-.089a18.608 18.608 0 00-7.742 0z"/></svg>